<svg width="27" height="34" fill="none" xmlns="http://www.w3.org/2000/svg"><path d="M5.625 13.5c.013 2.599-.032 7.929-2.36 15.75h20.468c-2.325-7.792-2.37-13.135-2.358-15.75l2.88-2.88a1.687 1.687 0 00.495-1.194V1.687C24.75.756 23.994 0 23.062 0H3.938C3.006 0 2.25.756 2.25 1.688v7.738c0 .448.178.877.494 1.193L5.625 13.5zM4.5 2.25h3.375v3.375h2.25V2.25h6.75v3.375h2.25V2.25H22.5v6.943l-3.37 3.37c-.014 2.876-.082 7.477 1.654 14.437H6.214c1.737-6.974 1.67-11.563 1.656-14.437L4.5 9.193V2.25zM15.469 18H11.53v-3.938a1.969 1.969 0 013.938 0V18zM27 32.344v.562a.844.844 0 01-.844.844H.844A.844.844 0 010 32.906v-.562c0-.466.378-.844.844-.844h25.312c.466 0 .844.378.844.844z" fill="#F67110"/></svg>