<svg width="27" height="22" fill="none" xmlns="http://www.w3.org/2000/svg"><path d="M26.764 10.424L22.164 3a.673.673 0 00-.564-.3.67.67 0 00-.563.3l-4.6 7.424a1.31 1.31 0 00-.233.829A5.41 5.41 0 0021.6 16.2a5.41 5.41 0 005.396-4.947 1.31 1.31 0 00-.232-.829zM21.6 14.85c-1.754 0-3.272-1.145-3.83-2.7h7.645c-.567 1.57-2.073 2.7-3.815 2.7zm-3.808-4.05l3.81-6.15 3.836 6.15h-7.646zm4.82 9.45h-8.437V5.305A2.69 2.69 0 0016.1 3.39l6.255-2.093A.338.338 0 0022.57.87l-.215-.64a.338.338 0 00-.427-.213l-5.84 1.953A2.692 2.692 0 0013.5 0a2.7 2.7 0 00-2.7 2.7c0 .346.07.674.191.977L4.644 5.8a.338.338 0 00-.213.427l.215.64c.059.177.25.272.427.213l6.769-2.264c.287.226.618.394.983.488v15.958c0 .187.152.338.338.338h9.45a.337.337 0 00.337-.338v-.675a.338.338 0 00-.337-.337zM12.15 2.7c0-.744.606-1.35 1.35-1.35.744 0 1.35.606 1.35 1.35 0 .744-.606 1.35-1.35 1.35-.744 0-1.35-.606-1.35-1.35zM5.963 8.4a.672.672 0 00-.563-.3.67.67 0 00-.563.3l-4.6 7.424a1.31 1.31 0 00-.233.829A5.41 5.41 0 005.4 21.6a5.41 5.41 0 005.396-4.947 1.31 1.31 0 00-.232-.829L5.964 8.4zM5.4 20.25c-1.754 0-3.272-1.145-3.83-2.7h7.645c-.567 1.57-2.073 2.7-3.815 2.7zM1.592 16.2l3.81-6.15 3.836 6.15H1.592z" fill="#F67110"/></svg>