<svg width="26" height="21" fill="none" xmlns="http://www.w3.org/2000/svg"><path d="M21.426 6.395l-1.889-1.89.966-.965c.5-.5.5-1.31 0-1.809L19.146.374A1.275 1.275 0 0018.242 0c-.328 0-.655.125-.905.374l-.965.966-.965-.966A1.275 1.275 0 0014.502 0c-.327 0-.655.125-.904.374L9.74 4.231c-.5.5-.5 1.31 0 1.808l.966.966-9.918 9.918c-.5.5-.5 1.31 0 1.809l1.356 1.357c.25.25.577.374.905.374.327 0 .654-.125.904-.375l9.918-9.918 1.89 1.89v4.566h1.278a8.953 8.953 0 008.953-8.952v-1.28h-4.567zm-3.185-5.116l1.357 1.356-.965.966-1.357-1.357.965-.965zM3.05 19.184l-1.357-1.356 9.918-9.919 1.357 1.357-9.918 9.918zm13.99-3.837V11.53l-6.394-6.395L14.5 1.28h.001l6.395 6.395h3.817c0 4.23-3.442 7.673-7.674 7.673z" fill="#00F0B5"/></svg>